<svg xmlns="http://www.w3.org/2000/svg" width="48" height="48" viewBox="0 0 48 48" fill="none">
  <defs>
    <linearGradient id="bg" x1="0" y1="0" x2="48" y2="48" gradientUnits="userSpaceOnUse">
      <stop stop-color="#5b53ea"/>
      <stop offset="1" stop-color="#3730c4"/>
    </linearGradient>
  </defs>
  <rect width="48" height="48" rx="11" fill="url(#bg)"/>
  <g fill="#ffffff">
    <!-- finder: top-left -->
    <rect x="9" y="9" width="11" height="11" rx="3"/>
    <!-- finder: top-right -->
    <rect x="28" y="9" width="11" height="11" rx="3"/>
    <!-- finder: bottom-left -->
    <rect x="9" y="28" width="11" height="11" rx="3"/>
  </g>
  <g fill="url(#bg)">
    <rect x="12" y="12" width="5" height="5" rx="1.4"/>
    <rect x="31" y="12" width="5" height="5" rx="1.4"/>
    <rect x="12" y="31" width="5" height="5" rx="1.4"/>
  </g>
  <!-- data modules (bottom-right quadrant) -->
  <g fill="#ffffff">
    <rect x="27" y="27" width="4.2" height="4.2" rx="1.1"/>
    <rect x="34.8" y="27" width="4.2" height="4.2" rx="1.1"/>
    <rect x="27" y="34.8" width="4.2" height="4.2" rx="1.1"/>
    <rect x="34.8" y="34.8" width="4.2" height="4.2" rx="1.1" fill-opacity="0.55"/>
    <rect x="30.9" y="30.9" width="4.2" height="4.2" rx="1.1" fill-opacity="0.55"/>
  </g>
</svg>
